<svg width="56" height="28" viewBox="0 0 56 28" fill="none" xmlns="http://www.w3.org/2000/svg">
<rect width="56" height="28" fill="#D9D9D9"/>
<g clip-path="url(#clip0_111_462)">
<path d="M25.7192 9.08766C25.7192 8.98792 25.733 8.77252 25.7607 8.44284C25.7905 8.11246 25.9152 7.76685 26.1389 7.40392C26.3605 7.04238 26.72 6.71754 27.2201 6.43011C27.718 6.14406 28.4377 6 29.3768 6H32.0226V8.88334H30.0854C29.8935 8.88334 29.7148 8.95537 29.5535 9.09736C29.3935 9.23934 29.3111 9.3744 29.3111 9.49976V11.2936H32.0219C31.9935 11.6448 31.9624 11.9862 31.9263 12.3159L31.819 13.1872C31.7761 13.4816 31.7324 13.7545 31.6895 14.0059H29.2917V22H25.7192V14.0052H23.9766V11.2936H25.7192V9.08766Z" fill="black"/>
</g>
<defs>
<clipPath id="clip0_111_462">
<rect width="16" height="16" fill="white" transform="translate(20 6)"/>
</clipPath>
</defs>
</svg>
