<svg width="48" height="20" viewBox="0 0 48 20" fill="none" xmlns="http://www.w3.org/2000/svg">
<rect width="48" height="20" fill="#D9D9D9"/>
<path fill-rule="evenodd" clip-rule="evenodd" d="M21.032 16.3999C27.0696 16.3999 30.372 11.4748 30.372 7.20423C30.372 7.06403 30.372 6.92489 30.3624 6.78626C31.0048 6.32943 31.5592 5.76222 32 5.11321C31.4016 5.37471 30.7656 5.5462 30.1152 5.62181C30.8 5.21775 31.3128 4.58296 31.5584 3.83392C30.9136 4.21041 30.2088 4.47612 29.4736 4.61868C28.2304 3.31751 26.1512 3.25447 24.8288 4.47845C23.9768 5.26766 23.6144 6.44435 23.8792 7.56673C21.24 7.43599 18.7808 6.20887 17.1136 4.19017C16.2424 5.66698 16.688 7.55553 18.1304 8.50384C17.608 8.48887 17.0968 8.3504 16.64 8.09993V8.14095C16.6408 9.67921 17.7424 11.0037 19.2736 11.3085C18.7904 11.4385 18.2832 11.4573 17.792 11.3636C18.2216 12.6805 19.4544 13.5825 20.8584 13.6085C19.696 14.508 18.26 14.9964 16.7816 14.9949C16.5208 14.9941 16.26 14.9791 16 14.9484C17.5016 15.8967 19.248 16.4 21.032 16.3976" fill="black"/>
</svg>
