<svg width="48" height="26" viewBox="0 0 48 26" fill="none" xmlns="http://www.w3.org/2000/svg">
<rect width="48" height="26" fill="#D9D9D9"/>
<g clip-path="url(#clip0_111_484)">
<path fill-rule="evenodd" clip-rule="evenodd" d="M22.3908 15.0688V10.5793C23.9845 11.3293 25.2189 12.0537 26.6788 12.8348C25.4747 13.5026 23.9845 14.2518 22.3908 15.0688ZM31.2728 8.34653C30.9979 7.98432 30.5293 7.70237 30.0305 7.60903C28.5642 7.33059 19.4168 7.3298 17.9513 7.60903C17.5513 7.68402 17.1951 7.86529 16.8891 8.14692C15.5997 9.34364 16.0037 15.7613 16.3145 16.8008C16.4452 17.2508 16.6142 17.5753 16.8269 17.7883C17.101 18.0699 17.4764 18.2639 17.9075 18.3508C19.1148 18.6005 25.3344 18.7402 30.005 18.3883C30.4353 18.3133 30.8162 18.1132 31.1166 17.8196C32.3087 16.6276 32.2275 9.84961 31.2728 8.34653Z" fill="black"/>
</g>
<defs>
<clipPath id="clip0_111_484">
<rect width="16" height="16" fill="white" transform="translate(16 5)"/>
</clipPath>
</defs>
</svg>
