<svg width="32" height="50" viewBox="0 0 32 50" fill="none" xmlns="http://www.w3.org/2000/svg">
<rect width="32" height="50" fill="#D9D9D9"/>
<path fill-rule="evenodd" clip-rule="evenodd" d="M12.6957 17.0982C11.3934 17.1569 10.2647 17.4753 9.3532 18.3829C8.43856 19.2953 8.12411 20.4286 8.06521 21.7173C8.02859 22.5217 7.81447 28.5986 8.43537 30.1923C8.85408 31.2674 9.67875 32.0941 10.7637 32.5141C11.27 32.7111 11.848 32.8444 12.6957 32.8833C19.7844 33.2041 22.4121 33.0294 23.5201 30.1923C23.7168 29.6873 23.8521 29.1098 23.8895 28.2642C24.2135 21.1574 23.837 19.6169 22.6015 18.3829C21.6216 17.4055 20.469 16.7401 12.6957 17.0982ZM12.761 31.454C11.9849 31.419 11.5638 31.2897 11.2828 31.1809C10.5759 30.9062 10.0449 30.3774 9.7719 29.6747C9.29905 28.4638 9.45588 22.7124 9.49807 21.7818C9.53946 20.8702 9.72414 20.0371 10.3673 19.3939C11.1634 18.5998 12.1918 18.2107 19.1945 18.5267C20.1083 18.568 20.9434 18.7523 21.5882 19.3939C22.3842 20.1879 22.779 21.2243 22.4574 28.2001C22.4224 28.9743 22.2927 29.3944 22.1836 29.6747C21.4632 31.5209 19.8059 31.7772 12.761 31.454ZM19.2717 20.7517C19.2717 21.2774 19.6992 21.7048 20.227 21.7048C20.7547 21.7048 21.183 21.2774 21.183 20.7517C21.183 20.226 20.7547 19.799 20.227 19.799C19.6992 19.799 19.2717 20.226 19.2717 20.7517ZM11.8901 24.9903C11.8901 27.2423 13.7202 29.0681 15.9778 29.0681C18.2353 29.0681 20.0654 27.2423 20.0654 24.9903C20.0654 22.7384 18.2353 20.9138 15.9778 20.9138C13.7202 20.9138 11.8901 22.7384 11.8901 24.9903ZM13.3246 24.9903C13.3246 23.5293 14.5123 22.3439 15.9778 22.3439C17.4433 22.3439 18.6309 23.5293 18.6309 24.9903C18.6309 26.4522 17.4433 27.638 15.9778 27.638C14.5123 27.638 13.3246 26.4522 13.3246 24.9903Z" fill="black"/>
</svg>
