<svg width="40" height="50" viewBox="0 0 40 50" fill="none" xmlns="http://www.w3.org/2000/svg">
<rect width="40" height="50" fill="#D9D9D9"/>
<path d="M20.033 17C15.633 17 13.333 19.8 13.333 22.9C13.333 24.4 14.133 25.9 15.433 26.7C15.833 26.9 15.733 26.7 16.033 25.5C16.033 25.4 16.033 25.3 15.933 25.2C14.133 23 15.633 18.7 19.833 18.7C25.933 18.7 24.733 27.1 20.933 27.1C20.133 27.2 19.433 26.6 19.433 25.8V25.4C19.833 24.3 20.133 23.3 20.233 22.2C20.233 20.1 17.133 20.4 17.133 23.2C17.133 23.7 17.233 24.2 17.433 24.6C17.433 24.6 16.433 28.7 16.233 29.4C16.033 30.6 16.133 31.8 16.333 32.9C16.233 33 16.333 33 16.333 33H16.433C17.133 32 17.733 31 18.133 29.9C18.233 29.4 18.733 27.6 18.733 27.6C19.233 28.3 20.133 28.7 21.033 28.7C24.133 28.7 26.333 26 26.333 22.7C26.333 19.4 23.533 17 20.033 17Z" fill="black"/>
</svg>
