<svg width="48" height="26" viewBox="0 0 48 26" fill="none" xmlns="http://www.w3.org/2000/svg">
<rect width="48" height="26" fill="#D9D9D9"/>
<path fill-rule="evenodd" clip-rule="evenodd" d="M21.032 19.3999C27.0696 19.3999 30.372 14.4748 30.372 10.2042C30.372 10.064 30.372 9.92489 30.3624 9.78626C31.0048 9.32943 31.5592 8.76222 32 8.11321C31.4016 8.37471 30.7656 8.5462 30.1152 8.62181C30.8 8.21775 31.3128 7.58296 31.5584 6.83392C30.9136 7.21041 30.2088 7.47612 29.4736 7.61868C28.2304 6.31751 26.1512 6.25447 24.8288 7.47845C23.9768 8.26766 23.6144 9.44435 23.8792 10.5667C21.24 10.436 18.7808 9.20887 17.1136 7.19017C16.2424 8.66698 16.688 10.5555 18.1304 11.5038C17.608 11.4889 17.0968 11.3504 16.64 11.0999V11.1409C16.6408 12.6792 17.7424 14.0037 19.2736 14.3085C18.7904 14.4385 18.2832 14.4573 17.792 14.3636C18.2216 15.6805 19.4544 16.5825 20.8584 16.6085C19.696 17.508 18.26 17.9964 16.7816 17.9949C16.5208 17.9941 16.26 17.9791 16 17.9484C17.5016 18.8967 19.248 19.4 21.032 19.3976" fill="black"/>
</svg>
