<svg width="40" height="40" viewBox="0 0 40 40" fill="none" xmlns="http://www.w3.org/2000/svg">
<rect width="40" height="40" fill="#D9D9D9"/>
<path fill-rule="evenodd" clip-rule="evenodd" d="M16.6957 12.0982C15.3934 12.1569 14.2647 12.4753 13.3532 13.383C12.4386 14.2953 12.1241 15.4286 12.0652 16.7173C12.0286 17.5217 11.8145 23.5987 12.4354 25.1923C12.8541 26.2675 13.6788 27.0942 14.7637 27.5142C15.27 27.7112 15.848 27.8445 16.6957 27.8834C23.7844 28.2042 26.4121 28.0295 27.5202 25.1923C27.7168 24.6873 27.8521 24.1099 27.8895 23.2642C28.2135 16.1574 27.837 14.6169 26.6016 13.383C25.6216 12.4055 24.469 11.7401 16.6957 12.0982ZM16.761 26.4541C15.9849 26.4191 15.5638 26.2898 15.2828 26.181C14.5759 25.9063 14.0449 25.3775 13.7719 24.6748C13.2991 23.4638 13.4559 17.7124 13.4981 16.7818C13.5395 15.8702 13.7241 15.0371 14.3673 14.3939C15.1634 13.5998 16.1918 13.2107 23.1945 13.5267C24.1084 13.568 24.9434 13.7523 25.5882 14.3939C26.3842 15.1879 26.7791 16.2243 26.4575 23.2002C26.4224 23.9744 26.2927 24.3945 26.1836 24.6748C25.4632 26.521 23.8059 26.7772 16.761 26.4541ZM23.2717 15.7517C23.2717 16.2774 23.6992 16.7048 24.227 16.7048C24.7548 16.7048 25.183 16.2774 25.183 15.7517C25.183 15.226 24.7548 14.799 24.227 14.799C23.6992 14.799 23.2717 15.226 23.2717 15.7517ZM15.8901 19.9904C15.8901 22.2423 17.7202 24.0681 19.9778 24.0681C22.2353 24.0681 24.0654 22.2423 24.0654 19.9904C24.0654 17.7384 22.2353 15.9138 19.9778 15.9138C17.7202 15.9138 15.8901 17.7384 15.8901 19.9904ZM17.3246 19.9904C17.3246 18.5293 18.5123 17.3439 19.9778 17.3439C21.4433 17.3439 22.6309 18.5293 22.6309 19.9904C22.6309 21.4523 21.4433 22.638 19.9778 22.638C18.5123 22.638 17.3246 21.4523 17.3246 19.9904Z" fill="black"/>
</svg>
