<svg width="40" height="50" viewBox="0 0 40 50" fill="none" xmlns="http://www.w3.org/2000/svg">
<rect width="40" height="50" fill="#D9D9D9"/>
<path fill-rule="evenodd" clip-rule="evenodd" d="M16.6957 15.0982C15.3934 15.1569 14.2647 15.4753 13.3532 16.3829C12.4386 17.2953 12.1241 18.4286 12.0652 19.7173C12.0286 20.5217 11.8145 26.5986 12.4354 28.1923C12.8541 29.2674 13.6788 30.0941 14.7637 30.5141C15.27 30.7111 15.848 30.8444 16.6957 30.8833C23.7844 31.2041 26.4121 31.0294 27.5202 28.1923C27.7168 27.6873 27.8521 27.1098 27.8895 26.2642C28.2135 19.1574 27.837 17.6169 26.6016 16.3829C25.6216 15.4055 24.469 14.7401 16.6957 15.0982ZM16.761 29.454C15.9849 29.419 15.5638 29.2897 15.2828 29.1809C14.5759 28.9062 14.0449 28.3774 13.7719 27.6747C13.2991 26.4638 13.4559 20.7124 13.4981 19.7818C13.5395 18.8702 13.7241 18.0371 14.3673 17.3939C15.1634 16.5998 16.1918 16.2107 23.1945 16.5267C24.1084 16.568 24.9434 16.7523 25.5882 17.3939C26.3842 18.1879 26.7791 19.2243 26.4575 26.2001C26.4224 26.9743 26.2927 27.3944 26.1836 27.6747C25.4632 29.5209 23.8059 29.7772 16.761 29.454ZM23.2717 18.7517C23.2717 19.2774 23.6992 19.7048 24.227 19.7048C24.7548 19.7048 25.183 19.2774 25.183 18.7517C25.183 18.226 24.7548 17.799 24.227 17.799C23.6992 17.799 23.2717 18.226 23.2717 18.7517ZM15.8901 22.9903C15.8901 25.2423 17.7202 27.0681 19.9778 27.0681C22.2353 27.0681 24.0654 25.2423 24.0654 22.9903C24.0654 20.7384 22.2353 18.9138 19.9778 18.9138C17.7202 18.9138 15.8901 20.7384 15.8901 22.9903ZM17.3246 22.9903C17.3246 21.5293 18.5123 20.3439 19.9778 20.3439C21.4433 20.3439 22.6309 21.5293 22.6309 22.9903C22.6309 24.4522 21.4433 25.638 19.9778 25.638C18.5123 25.638 17.3246 24.4522 17.3246 22.9903Z" fill="black"/>
</svg>
