<svg width="56" height="30" viewBox="0 0 56 30" fill="none" xmlns="http://www.w3.org/2000/svg">
<rect width="56" height="30" fill="#D9D9D9"/>
<g clip-path="url(#clip0_111_454)">
<path d="M25.7192 10.0877C25.7192 9.98792 25.733 9.77252 25.7607 9.44284C25.7905 9.11246 25.9152 8.76685 26.1389 8.40392C26.3605 8.04238 26.72 7.71754 27.2201 7.43011C27.718 7.14406 28.4377 7 29.3768 7H32.0226V9.88334H30.0854C29.8935 9.88334 29.7148 9.95537 29.5535 10.0974C29.3935 10.2393 29.3111 10.3744 29.3111 10.4998V12.2936H32.0219C31.9935 12.6448 31.9624 12.9862 31.9263 13.3159L31.819 14.1872C31.7761 14.4816 31.7324 14.7545 31.6895 15.0059H29.2917V23H25.7192V15.0052H23.9766V12.2936H25.7192V10.0877Z" fill="black"/>
</g>
<defs>
<clipPath id="clip0_111_454">
<rect width="16" height="16" fill="white" transform="translate(20 7)"/>
</clipPath>
</defs>
</svg>
